<?xml version="1.0" standalone="no"?>
<!DOCTYPE svg PUBLIC "-//W3C//DTD SVG 20010904//EN"
 "http://www.w3.org/TR/2001/REC-SVG-20010904/DTD/svg10.dtd">
<svg version="1.0" xmlns="http://www.w3.org/2000/svg"
 width="593.000000pt" height="388.000000pt" viewBox="0 0 593.000000 388.000000"
 preserveAspectRatio="xMidYMid meet">

<g transform="translate(0.000000,388.000000) scale(0.100000,-0.100000)"
fill="#000000" stroke="none">
<path d="M3848 3404 c-6 -78 -32 -146 -75 -188 -14 -14 -30 -23 -36 -19 -5 3
-7 1 -3 -5 8 -13 -55 -52 -114 -69 l-45 -13 52 4 c68 6 139 43 190 99 50 54
71 100 79 173 7 52 5 56 -23 53 -4 0 -10 8 -14 18 -3 10 -8 -14 -11 -53z"/>
<path d="M3805 3330 c2 -26 11 -34 18 -16 3 8 0 19 -7 25 -10 8 -12 6 -11 -9z"/>
<path d="M2391 3322 c-1 -7 -4 -11 -9 -8 -4 2 -6 -29 -4 -69 2 -40 0 -80 -5
-89 -5 -9 -8 14 -7 62 1 42 0 60 -3 40 -2 -24 -9 -38 -18 -38 -8 0 -19 -17
-25 -40 -6 -21 -14 -41 -19 -44 -11 -7 -2 -56 10 -56 5 0 9 4 9 10 0 5 9 14
21 20 20 11 20 11 5 -19 -20 -38 -52 -60 -77 -54 -13 4 -19 0 -19 -11 0 -10 6
-13 18 -9 14 5 14 3 -2 -9 -11 -9 -27 -13 -37 -11 -10 3 -26 0 -36 -7 -17 -11
-17 -11 2 -5 13 4 17 3 10 -4 -5 -5 -26 -14 -45 -20 -33 -10 -32 -11 18 -6
137 11 243 129 242 269 -1 44 -27 133 -29 98z"/>
<path d="M3775 3269 c-10 -15 3 -25 16 -12 7 7 7 13 1 17 -6 3 -14 1 -17 -5z"/>
<path d="M2301 3261 c-8 -6 -9 -11 -3 -15 6 -3 14 -1 17 5 9 14 2 20 -14 10z"/>
<path d="M3690 3190 c-9 -6 -10 -10 -3 -10 6 0 15 5 18 10 8 12 4 12 -15 0z"/>
<path d="M2286 3053 c-6 -14 -5 -15 5 -6 7 7 10 15 7 18 -3 3 -9 -2 -12 -12z"/>
<path d="M2560 2959 c-35 -14 -59 -38 -81 -81 -16 -31 -19 -59 -19 -160 l0
-123 -30 -28 c-47 -45 -39 -117 12 -109 17 3 19 -53 9 -360 -1 -36 -3 -38 -34
-38 -41 0 -64 -23 -78 -76 -6 -22 -17 -46 -24 -54 -7 -8 -15 -40 -19 -71 -7
-66 5 -82 72 -97 23 -6 42 -9 42 -7 0 1 -11 14 -25 29 -14 15 -26 39 -26 54
-2 27 2 106 5 109 0 0 18 4 39 7 21 3 47 11 58 16 16 9 19 7 19 -9 0 -22 35
-51 62 -51 23 0 24 -33 2 -54 -8 -9 -16 -35 -17 -58 -2 -41 -1 -43 34 -52 26
-6 44 -5 65 5 27 13 29 18 30 72 0 47 -3 60 -18 68 -10 5 -18 20 -18 34 0 13
-6 30 -13 37 -27 26 -40 59 -28 71 6 6 11 19 11 29 0 22 -35 24 -48 3 -5 -10
-15 -13 -26 -9 -17 6 -17 28 -11 388 l7 381 24 32 c31 41 74 53 196 53 110 0
128 -9 128 -65 0 -21 6 -35 16 -39 9 -3 87 -6 174 -6 147 0 160 1 170 19 5 11
10 31 10 45 0 14 8 30 18 35 26 14 212 1 239 -16 37 -24 53 -74 53 -163 0 -79
1 -81 23 -78 20 3 22 9 25 83 5 127 -23 190 -102 226 -38 17 -73 19 -471 18
-259 0 -440 -4 -455 -10z"/>
<path d="M3690 2960 c0 -6 -11 -15 -24 -20 -33 -12 -53 -73 -35 -106 17 -33
33 -30 50 8 20 45 40 54 86 40 68 -21 88 -20 91 6 3 17 -2 25 -17 29 -11 3
-22 11 -25 19 -3 8 -16 14 -30 14 -14 0 -28 5 -31 10 -8 13 -65 13 -65 0z"/>
<path d="M3728 2833 c7 -3 16 -2 19 1 4 3 -2 6 -13 5 -11 0 -14 -3 -6 -6z"/>
<path d="M3808 2833 c7 -3 16 -2 19 1 4 3 -2 6 -13 5 -11 0 -14 -3 -6 -6z"/>
<path d="M2181 2659 c-9 -25 14 -84 48 -123 16 -18 83 -56 99 -56 12 0 -3 82
-23 123 -18 36 -50 63 -89 73 -21 5 -27 2 -35 -17z"/>
<path d="M3645 2644 c-6 -9 -33 -20 -60 -25 -67 -13 -105 -51 -112 -113 -6
-49 -4 -52 30 -35 21 10 21 9 3 -5 -10 -8 -23 -17 -28 -18 -5 -2 -6 -16 -3
-31 5 -20 12 -26 23 -22 12 4 13 3 3 -9 -7 -8 -10 -24 -6 -35 6 -20 9 -19 75
17 68 36 69 37 84 17 45 -62 36 -61 104 -11 88 65 162 139 162 162 0 22 -47
55 -102 73 -21 7 -38 19 -38 27 0 20 -17 17 -37 -5 -16 -20 -17 -19 -46 5 -34
28 -39 29 -52 8z m-45 -128 c0 -2 -7 -7 -16 -10 -8 -3 -12 -2 -9 4 6 10 25 14
25 6z"/>
<path d="M3998 2589 c-54 -73 -47 -94 7 -25 25 32 42 62 39 67 -7 12 -5 15
-46 -42z"/>
<path d="M4736 2459 c-16 -16 -34 -27 -40 -26 -6 1 -10 -4 -9 -10 4 -18 -34
-40 -100 -57 -64 -17 -129 -10 -189 19 l-33 16 25 -20 c66 -54 183 -66 265
-27 52 24 114 81 102 92 -4 4 -2 13 5 21 20 25 3 19 -26 -8z"/>
<path d="M2212 2407 c-33 -40 77 -75 143 -45 33 15 32 23 -9 42 -41 19 -119
21 -134 3z"/>
<path d="M4558 2373 c7 -3 16 -2 19 1 4 3 -2 6 -13 5 -11 0 -14 -3 -6 -6z"/>
<path d="M3860 2295 c-6 -7 -43 -36 -82 -62 -60 -41 -67 -49 -47 -51 63 -10
159 44 159 89 0 33 -13 44 -30 24z"/>
<path d="M1329 2192 c-51 -33 -90 -76 -122 -136 -18 -34 -22 -57 -22 -136 0
-86 3 -100 29 -148 18 -32 32 -48 37 -41 4 8 9 4 14 -10 3 -11 11 -21 16 -21
17 0 5 34 -16 47 -11 7 -14 12 -7 13 10 0 10 4 0 23 -14 25 -16 34 -25 102 -3
28 -3 48 0 44 4 -3 8 -20 9 -38 1 -18 6 -35 10 -37 5 -3 6 -10 3 -15 -4 -5 -1
-9 4 -9 6 0 11 5 11 11 0 5 5 7 11 3 8 -5 10 1 7 18 -4 21 -1 24 14 20 13 -3
18 1 18 17 0 11 -4 21 -10 21 -5 0 -10 13 -10 29 0 16 -5 31 -12 33 -16 6 -17
77 -1 90 7 6 13 7 13 2 0 -17 20 21 20 38 0 58 -78 -76 -81 -138 -1 -24 -2
-25 -6 -6 -10 51 72 212 99 195 6 -3 8 -1 4 5 -3 5 6 20 21 31 41 30 24 26
-28 -7z"/>
<path d="M3540 1943 l0 -228 -472 3 -473 2 32 -21 c51 -32 75 -94 76 -197 2
-72 -2 -94 -20 -127 -65 -121 -213 -170 -338 -111 -76 35 -145 124 -145 187 0
24 -39 99 -52 99 -4 0 -8 -68 -8 -151 0 -133 2 -153 18 -165 12 -10 56 -13
155 -14 l137 0 0 -215 c0 -231 5 -260 51 -305 49 -47 60 -48 514 -51 l430 -4
45 25 c55 31 90 88 90 148 0 81 149 369 283 547 l30 40 -31 -30 c-41 -40 -149
-213 -218 -350 -31 -60 -58 -112 -61 -115 -3 -3 -3 280 1 628 l5 632 -24 0
-25 0 0 -227z m-262 -380 c-98 -2 -258 -2 -355 0 -98 1 -18 2 177 2 195 0 275
-1 178 -2z m-45 -60 c-73 -2 -193 -2 -265 0 -73 1 -14 3 132 3 146 0 205 -2
133 -3z m15 -70 c-87 -2 -229 -2 -315 0 -87 1 -16 3 157 3 173 0 244 -2 158
-3z m-150 -60 c-65 -2 -171 -2 -235 0 -65 1 -12 3 117 3 129 0 182 -2 118 -3z
m422 -565 c-6 -22 -23 -46 -43 -60 l-32 -23 -420 3 c-357 2 -426 5 -457 19
-62 26 -68 52 -68 277 l0 196 317 0 317 0 43 -42 c44 -43 49 -42 55 12 l3 25
135 3 c74 1 139 7 145 13 14 14 19 -374 5 -423z"/>
<path d="M2940 910 c0 -5 7 -10 15 -10 8 0 15 5 15 10 0 6 -7 10 -15 10 -8 0
-15 -4 -15 -10z"/>
<path d="M2990 910 c0 -5 7 -10 15 -10 8 0 15 5 15 10 0 6 -7 10 -15 10 -8 0
-15 -4 -15 -10z"/>
<path d="M3045 910 c3 -5 10 -10 16 -10 5 0 9 5 9 10 0 6 -7 10 -16 10 -8 0
-12 -4 -9 -10z"/>
<path d="M2376 1927 c3 -10 9 -15 12 -12 3 3 0 11 -7 18 -10 9 -11 8 -5 -6z"/>
<path d="M1265 1811 c-3 -5 -2 -12 3 -15 5 -3 9 1 9 9 0 17 -3 19 -12 6z"/>
<path d="M1297 1746 c10 -13 20 -19 22 -13 2 6 -1 13 -8 15 -6 2 -9 8 -5 13 3
5 -2 9 -11 9 -14 0 -14 -3 2 -24z"/>
<path d="M2108 1734 c-4 -4 1 -19 12 -34 11 -16 20 -36 20 -45 0 -9 4 -14 9
-11 5 3 16 -5 25 -19 24 -36 46 -32 46 8 1 30 2 31 15 13 14 -19 15 -18 37 9
12 15 40 36 62 47 l41 19 -120 -3 c-90 -2 -123 0 -130 10 -6 7 -14 10 -17 6z"/>
<path d="M2388 1723 c7 -3 16 -2 19 1 4 3 -2 6 -13 5 -11 0 -14 -3 -6 -6z"/>
<path d="M3842 1515 c0 -16 2 -22 5 -12 2 9 2 23 0 30 -3 6 -5 -1 -5 -18z"/>
<path d="M2510 1500 c-6 -11 -8 -20 -6 -20 3 0 10 9 16 20 6 11 8 20 6 20 -3
0 -10 -9 -16 -20z"/>
<path d="M3831 1424 c0 -11 3 -14 6 -6 3 7 2 16 -1 19 -3 4 -6 -2 -5 -13z"/>
<path d="M4279 1183 c12 -23 29 -38 37 -31 2 3 -8 15 -22 29 -25 23 -26 23
-15 2z"/>
<path d="M4366 1153 c6 -4 14 -15 17 -23 5 -11 6 -9 4 4 -1 11 -9 21 -17 23
-10 3 -11 2 -4 -4z"/>
<path d="M4448 1113 c7 -3 16 -2 19 1 4 3 -2 6 -13 5 -11 0 -14 -3 -6 -6z"/>
<path d="M4486 1073 c22 -11 43 -13 68 -9 58 11 42 23 -31 24 l-68 1 31 -16z"/>
<path d="M3733 1013 c9 -2 23 -2 30 0 6 3 -1 5 -18 5 -16 0 -22 -2 -12 -5z"/>
<path d="M2305 880 c-4 -28 -11 -48 -15 -45 -4 3 -6 -3 -4 -12 6 -24 -53 -116
-68 -107 -6 4 -8 3 -5 -3 8 -13 -15 -34 -68 -62 l-40 -22 34 6 c49 8 115 49
148 91 22 30 28 49 33 116 6 89 -4 116 -15 38z"/>
<path d="M2524 491 c4 -6 11 -9 16 -6 5 3 19 1 32 -4 15 -5 30 -6 39 0 11 7 9
9 -7 9 -12 0 -36 3 -54 7 -24 4 -31 3 -26 -6z"/>
<path d="M2648 483 c7 -3 16 -2 19 1 4 3 -2 6 -13 5 -11 0 -14 -3 -6 -6z"/>
<path d="M3850 478 c-52 -4 -147 -13 -210 -18 -85 -6 -25 -8 233 -4 192 2 354
7 360 11 34 21 -202 28 -383 11z"/>
<path d="M2630 468 c-36 -4 -71 -6 -78 -3 -8 3 -10 0 -6 -8 5 -8 2 -7 -9 2
-15 11 -17 11 -17 -1 0 -28 119 -37 185 -14 40 14 40 17 -5 31 -3 1 -34 -2
-70 -7z"/>
<path d="M2775 450 c17 -4 46 -8 65 -8 l35 0 -30 8 c-16 4 -46 8 -65 8 l-35 0
30 -8z"/>
<path d="M3853 293 c9 -2 23 -2 30 0 6 3 -1 5 -18 5 -16 0 -22 -2 -12 -5z"/>
<path d="M3330 279 c-88 -5 -78 -5 65 -5 94 0 190 3 215 7 53 8 -119 7 -280
-2z"/>
<path d="M3138 273 c6 -2 18 -2 25 0 6 3 1 5 -13 5 -14 0 -19 -2 -12 -5z"/>
</g>
</svg>
