<?xml version="1.0" encoding="UTF-8"?>
<svg id="Camada_1" xmlns="http://www.w3.org/2000/svg" version="1.1" xmlns:xlink="http://www.w3.org/1999/xlink" viewBox="0 0 1080 1080">
  <!-- Generator: Adobe Illustrator 29.6.0, SVG Export Plug-In . SVG Version: 2.1.1 Build 207)  -->
  <defs>
    <style>
      .st0 {
        fill: #5bc0de;
      }

      .st1 {
        fill: url(#Gradiente_sem_nome_2);
      }

      .st2 {
        fill: #fff;
      }

      .st3 {
        fill: #060e3d;
      }
    </style>
    <linearGradient id="Gradiente_sem_nome_2" data-name="Gradiente sem nome 2" x1="322.78" y1="606.72" x2="761.19" y2="179.12" gradientTransform="translate(-84.72 142.19) rotate(-13.92)" gradientUnits="userSpaceOnUse">
      <stop offset="0" stop-color="#060e3d"/>
      <stop offset="1" stop-color="#5bc0de"/>
    </linearGradient>
  </defs>
  <rect class="st3" x="-10" y="-10" width="1100" height="1100"/>
  <g>
    <g>
      <g>
        <path class="st2" d="M163.7,900.4l-32.02-132.66h-1.08v132.66h-26.64v-212.58h34.17l30.67,136.43h1.08v-136.43h26.91v212.58h-33.1Z"/>
        <path class="st2" d="M306.58,858.15c0,9.87-.58,17.76-1.75,23.68-1.17,5.92-3.41,10.45-6.73,13.59-3.32,3.14-7.85,5.2-13.59,6.19-5.74.98-13.19,1.48-22.33,1.48s-16.6-.5-22.33-1.48c-5.74-.99-10.22-3.05-13.45-6.19-3.23-3.14-5.43-7.67-6.59-13.59-1.17-5.92-1.75-13.81-1.75-23.68v-128.35c0-9.86.58-17.71,1.75-23.54,1.16-5.83,3.36-10.31,6.59-13.45,3.23-3.14,7.71-5.2,13.45-6.19,5.74-.98,13.19-1.48,22.33-1.48s16.59.5,22.33,1.48c5.74.99,10.27,3.05,13.59,6.19,3.32,3.14,5.56,7.63,6.73,13.45,1.16,5.83,1.75,13.68,1.75,23.54v128.35ZM275.36,729.8c0-3.59-.14-6.5-.4-8.75-.27-2.24-.9-3.94-1.88-5.11-.99-1.16-2.33-1.97-4.04-2.42-1.71-.45-3.9-.67-6.59-.67-5.74,0-9.42,1.08-11.03,3.23-1.61,2.15-2.42,6.73-2.42,13.72v128.35c0,3.77.14,6.77.4,9.01.27,2.24.9,3.99,1.88,5.25.98,1.26,2.33,2.11,4.04,2.56,1.7.45,3.9.67,6.59.67,2.87,0,5.2-.22,7-.67,1.79-.45,3.18-1.35,4.17-2.69.98-1.34,1.61-3.14,1.88-5.38.27-2.24.4-5.15.4-8.75v-128.35Z"/>
        <path class="st2" d="M370.35,903.09c-8.97,0-16.28-.5-21.93-1.48-5.65-.99-10.09-3.05-13.32-6.19-3.23-3.14-5.47-7.67-6.73-13.59-1.26-5.92-1.88-13.81-1.88-23.68v-170.33h30.95v170.33c0,3.77.18,6.77.54,9.01.36,2.24.98,3.95,1.88,5.11.89,1.17,2.24,1.98,4.04,2.42,1.79.45,4.04.67,6.73.67s4.93-.22,6.73-.67c1.79-.45,3.14-1.25,4.04-2.42.89-1.16,1.52-2.87,1.88-5.11.36-2.24.54-5.25.54-9.01v-170.33h30.14v170.33c0,9.87-.63,17.76-1.88,23.68-1.26,5.92-3.5,10.45-6.73,13.59-3.23,3.14-7.67,5.2-13.32,6.19-5.65.98-12.87,1.48-21.66,1.48Z"/>
        <path class="st2" d="M490.63,756.71v-26.37c0-3.77-.14-6.82-.4-9.15-.27-2.33-.85-4.08-1.75-5.25-.9-1.16-2.24-1.97-4.04-2.42-1.79-.45-4.13-.67-7-.67-3.05,0-5.43.23-7.13.67-1.71.45-3.01,1.26-3.9,2.42-.9,1.17-1.48,2.92-1.75,5.25-.27,2.33-.4,5.38-.4,9.15v20.99c0,4.31.45,7.49,1.35,9.55.89,2.06,3.14,4.17,6.73,6.32,3.05,1.98,7.13,4.22,12.24,6.73,5.11,2.51,10.72,5.65,16.82,9.42,4.48,2.87,8.12,5.47,10.9,7.8,2.78,2.33,4.84,4.94,6.19,7.8,1.35,2.87,2.24,6.28,2.69,10.22.45,3.95.67,8.88.67,14.8v34.17c0,9.87-.58,17.76-1.75,23.68-1.17,5.92-3.36,10.45-6.59,13.59-3.23,3.14-7.71,5.2-13.45,6.19-5.74.98-13.19,1.48-22.33,1.48s-15.97-.5-21.52-1.48c-5.56-.99-9.96-3-13.19-6.05-3.23-3.05-5.47-7.53-6.73-13.45-1.26-5.92-1.88-13.9-1.88-23.95v-42.25h30.14v42.25c0,3.77.13,6.77.4,9.01.27,2.24.85,3.99,1.75,5.25.9,1.26,2.2,2.11,3.9,2.56,1.7.45,3.99.67,6.86.67,5.74,0,9.37-1.08,10.9-3.23,1.52-2.15,2.29-6.9,2.29-14.26v-32.02c0-5.74-.36-9.86-1.08-12.38-.72-2.51-2.78-4.93-6.19-7.26-1.8-1.25-4.04-2.65-6.73-4.17-2.69-1.52-5.56-3.14-8.61-4.84-3.05-1.7-6.15-3.45-9.28-5.25-3.14-1.79-5.96-3.5-8.48-5.11-3.77-2.51-6.77-4.89-9.02-7.13-2.24-2.24-3.95-4.71-5.11-7.4-1.17-2.69-1.93-5.74-2.29-9.15-.36-3.41-.54-7.62-.54-12.65v-20.45c0-9.86.58-17.76,1.75-23.68,1.16-5.92,3.32-10.49,6.46-13.72,3.13-3.23,7.53-5.34,13.18-6.32,5.65-.98,13.05-1.48,22.2-1.48s16.55.5,22.2,1.48c5.65.99,10.09,3.1,13.32,6.32,3.23,3.23,5.42,7.8,6.59,13.72,1.16,5.92,1.75,13.82,1.75,23.68v26.37h-30.14Z"/>
        <path class="st0" d="M604.98,900.4h-62.7v-212.58h30.94v185.67h31.75v26.91Z"/>
        <path class="st0" d="M680.86,900.4h-60.81v-212.58h60.54v25.56h-29.6v30.94h28.79v24.49h-28.79v104.94h29.87v26.64Z"/>
        <path class="st0" d="M753.78,749.17v-19.37c0-3.59-.13-6.5-.4-8.75-.27-2.24-.9-3.94-1.89-5.11-.99-1.16-2.33-1.97-4.03-2.42-1.71-.45-3.9-.67-6.59-.67-2.87,0-5.16.23-6.86.67-1.71.45-3.05,1.3-4.03,2.56-.99,1.26-1.62,3.01-1.89,5.25-.27,2.25-.4,5.07-.4,8.48v128.35c0,3.59.18,6.55.54,8.88.36,2.33,1.03,4.13,2.02,5.38.98,1.26,2.42,2.11,4.31,2.56,1.88.45,4.44.67,7.67.67,2.69,0,5.15-.09,7.4-.27,2.24-.18,3.9-.45,4.98-.81v-97.68h29.06v123.51c-2.52.54-7.36,1.12-14.53,1.75-7.18.63-15.61.94-25.29.94s-17.89-.54-24.08-1.61c-6.19-1.08-10.99-3.23-14.4-6.46-3.41-3.23-5.7-7.8-6.86-13.72-1.17-5.92-1.75-13.63-1.75-23.14v-128.35c0-9.69.63-17.49,1.88-23.41,1.25-5.92,3.54-10.45,6.86-13.59,3.32-3.14,7.85-5.2,13.59-6.19,5.74-.98,13-1.48,21.79-1.48s15.7.5,21.26,1.48c5.56.99,9.95,3.05,13.18,6.19,3.23,3.14,5.42,7.63,6.59,13.45,1.16,5.83,1.75,13.68,1.75,23.54v19.37h-29.87Z"/>
        <path class="st0" d="M860.61,900.4v-47.36h-26.1v47.36h-30.14v-170.6c0-9.69.58-17.49,1.75-23.41,1.16-5.92,3.36-10.45,6.59-13.59,3.23-3.14,7.58-5.2,13.05-6.19,5.47-.98,12.51-1.48,21.12-1.48s16.37.54,22.2,1.61c5.83,1.08,10.4,3.19,13.72,6.32,3.32,3.14,5.61,7.63,6.86,13.45,1.25,5.83,1.88,13.59,1.88,23.28v170.6h-30.94ZM847.42,712.84c-2.69,0-4.89.23-6.59.67-1.71.45-3.05,1.26-4.04,2.42-.99,1.17-1.62,2.87-1.88,5.11-.27,2.24-.4,5.16-.4,8.75v97.95h26.1v-97.95c0-3.59-.18-6.5-.54-8.75-.36-2.24-.99-3.94-1.88-5.11-.9-1.16-2.24-1.97-4.04-2.42-1.8-.45-4.04-.67-6.73-.67Z"/>
        <path class="st0" d="M976.04,900.4h-62.7v-212.58h30.94v185.67h31.75v26.91Z"/>
      </g>
      <g>
        <path class="st2" d="M155.69,988.62c0-1.8.52-3.37,1.55-4.72,1.04-1.35,2.46-2.39,4.28-3.13,1.82-.74,3.92-1.11,6.32-1.11,1.27,0,2.57.09,3.9.27,1.33.18,2.5.47,3.51.87v-1.79c0-1.97-.6-3.51-1.8-4.61-1.2-1.11-2.92-1.66-5.18-1.66-1.6,0-3.11.28-4.52.84-1.42.56-2.92,1.35-4.52,2.37l-2.02-4.03c1.89-1.27,3.79-2.21,5.69-2.83,1.91-.62,3.91-.93,6.02-.93,3.81,0,6.82,1,9.02,2.99,2.2,1.99,3.3,4.82,3.3,8.49v10.51c0,.68.12,1.17.35,1.46.24.29.64.45,1.23.48v4.8c-.54.11-1.04.18-1.47.22-.44.04-.8.05-1.09.05-1.27,0-2.23-.31-2.89-.93-.65-.62-1.04-1.34-1.14-2.18l-.16-1.63c-1.23,1.6-2.82,2.83-4.74,3.71-1.93.87-3.87,1.31-5.83,1.31s-3.58-.39-5.07-1.16c-1.49-.77-2.65-1.83-3.49-3.16-.84-1.33-1.25-2.83-1.25-4.48ZM173.84,990.32c.44-.46.78-.93,1.04-1.39.25-.46.38-.87.38-1.23v-3.21c-1.02-.39-2.09-.69-3.21-.88-1.13-.2-2.23-.29-3.32-.29-2.18,0-3.95.43-5.31,1.29-1.36.86-2.04,2.04-2.04,3.54,0,.82.23,1.61.68,2.36.45.75,1.11,1.36,1.96,1.82.85.46,1.92.7,3.19.7s2.56-.25,3.76-.75c1.2-.5,2.16-1.14,2.89-1.93Z"/>
        <path class="st2" d="M204.57,985.9v-17.31h5.99v16.09c0,2.52.46,4.42,1.39,5.7s2.28,1.92,4.06,1.92c1.12,0,2.22-.23,3.3-.7,1.07-.47,2.05-1.15,2.94-2.07.89-.91,1.61-2.02,2.15-3.31v-17.63h5.99v21.54c0,.68.13,1.17.38,1.46.25.29.67.45,1.25.49v4.8c-.62.11-1.13.18-1.53.22-.4.04-.78.05-1.14.05-1.09,0-2-.3-2.72-.89-.73-.6-1.14-1.36-1.25-2.3l-.11-2.81c-1.27,2.05-2.92,3.61-4.96,4.68-2.03,1.06-4.27,1.6-6.7,1.6-2.98,0-5.23-.97-6.76-2.92-1.53-1.95-2.29-4.81-2.29-8.6Z"/>
        <path class="st2" d="M270.17,995.51c-.51.26-1.14.53-1.91.82-.76.29-1.63.54-2.59.76-.96.22-1.95.33-2.97.33-1.24,0-2.38-.22-3.43-.65-1.05-.43-1.9-1.13-2.53-2.09-.64-.96-.95-2.2-.95-3.72v-17.74h-3.76v-4.63h3.76v-9.37h5.99v9.37h6.21v4.63h-6.21v15.82c.07.98.39,1.7.95,2.17.56.47,1.26.7,2.1.7s1.63-.14,2.4-.44c.76-.29,1.33-.53,1.69-.71l1.25,4.74Z"/>
        <path class="st2" d="M303.08,997.42c-2.25,0-4.27-.39-6.05-1.16-1.78-.77-3.32-1.85-4.6-3.21-1.29-1.37-2.28-2.92-2.97-4.67-.69-1.75-1.04-3.61-1.04-5.59s.34-3.85,1.04-5.62c.69-1.76,1.68-3.32,2.97-4.67,1.29-1.35,2.83-2.41,4.63-3.18,1.8-.77,3.81-1.16,6.02-1.16s4.22.39,6.02,1.16c1.8.77,3.34,1.84,4.63,3.18,1.29,1.35,2.28,2.91,2.97,4.67.69,1.76,1.04,3.64,1.04,5.62s-.35,3.84-1.04,5.59c-.69,1.75-1.68,3.3-2.97,4.67-1.29,1.37-2.83,2.44-4.63,3.21-1.8.77-3.81,1.16-6.02,1.16ZM294.58,982.84c0,1.79.38,3.4,1.14,4.84.76,1.43,1.78,2.56,3.05,3.38,1.27.82,2.71,1.23,4.3,1.23s2.99-.42,4.28-1.26c1.29-.84,2.32-1.99,3.08-3.44.76-1.45,1.14-3.05,1.14-4.81s-.38-3.4-1.14-4.83c-.76-1.43-1.79-2.57-3.08-3.41-1.29-.84-2.72-1.26-4.28-1.26s-3.03.43-4.3,1.29c-1.27.86-2.29,2-3.05,3.41-.76,1.42-1.14,3.04-1.14,4.86Z"/>
        <path class="st2" d="M383.02,996.87h-5.99v-15.78c0-2.62-.44-4.54-1.31-5.76-.87-1.22-2.14-1.83-3.81-1.83s-3.22.62-4.66,1.86c-1.44,1.24-2.44,2.85-3.02,4.82v16.7h-5.99v-15.78c0-2.62-.44-4.54-1.31-5.76-.87-1.22-2.13-1.83-3.76-1.83s-3.22.61-4.66,1.82c-1.44,1.21-2.46,2.8-3.08,4.77v16.79h-5.99v-28.28h5.45v5.72c1.12-1.98,2.61-3.5,4.44-4.56,1.83-1.06,3.93-1.59,6.29-1.59s4.22.61,5.58,1.84c1.36,1.22,2.21,2.75,2.53,4.59,1.23-2.09,2.75-3.68,4.55-4.78,1.8-1.1,3.86-1.65,6.18-1.65,1.67,0,3.07.31,4.2.92,1.13.61,2,1.45,2.62,2.51.62,1.06,1.06,2.29,1.34,3.67.27,1.39.41,2.85.41,4.4v17.22Z"/>
        <path class="st2" d="M404.21,988.62c0-1.8.52-3.37,1.55-4.72,1.04-1.35,2.46-2.39,4.28-3.13,1.82-.74,3.92-1.11,6.32-1.11,1.27,0,2.57.09,3.9.27,1.33.18,2.5.47,3.52.87v-1.79c0-1.97-.6-3.51-1.8-4.61-1.2-1.11-2.92-1.66-5.18-1.66-1.6,0-3.1.28-4.52.84-1.42.56-2.92,1.35-4.52,2.37l-2.02-4.03c1.89-1.27,3.79-2.21,5.69-2.83,1.91-.62,3.91-.93,6.02-.93,3.81,0,6.82,1,9.02,2.99,2.2,1.99,3.3,4.82,3.3,8.49v10.51c0,.68.12,1.17.35,1.46.24.29.64.45,1.23.48v4.8c-.55.11-1.04.18-1.47.22-.44.04-.8.05-1.09.05-1.27,0-2.24-.31-2.89-.93-.65-.62-1.04-1.34-1.15-2.18l-.16-1.63c-1.23,1.6-2.82,2.83-4.74,3.71-1.93.87-3.87,1.31-5.83,1.31s-3.58-.39-5.07-1.16c-1.49-.77-2.65-1.83-3.49-3.16-.84-1.33-1.25-2.83-1.25-4.48ZM422.36,990.32c.44-.46.78-.93,1.04-1.39.25-.46.38-.87.38-1.23v-3.21c-1.02-.39-2.09-.69-3.21-.88-1.13-.2-2.24-.29-3.32-.29-2.18,0-3.95.43-5.31,1.29-1.36.86-2.04,2.04-2.04,3.54,0,.82.23,1.61.68,2.36.45.75,1.11,1.36,1.96,1.82.85.46,1.92.7,3.19.7s2.56-.25,3.76-.75c1.2-.5,2.16-1.14,2.89-1.93Z"/>
        <path class="st2" d="M466.28,997.42c-2.22,0-4.22-.39-6.02-1.16-1.8-.77-3.35-1.85-4.66-3.21-1.31-1.37-2.32-2.93-3.02-4.7-.71-1.76-1.06-3.64-1.06-5.61,0-2.66.61-5.09,1.83-7.29,1.22-2.19,2.92-3.96,5.12-5.29,2.2-1.33,4.8-2,7.82-2s5.44.65,7.6,1.93c2.16,1.29,3.75,3.01,4.77,5.15l-5.83,1.85c-.65-1.2-1.57-2.13-2.75-2.81-1.18-.67-2.48-1.01-3.9-1.01-1.6,0-3.04.4-4.33,1.21-1.29.81-2.31,1.92-3.05,3.33-.75,1.41-1.12,3.05-1.12,4.91s.38,3.41,1.15,4.86c.76,1.45,1.79,2.6,3.08,3.44,1.29.84,2.73,1.26,4.33,1.26.98,0,1.93-.17,2.86-.52.93-.35,1.73-.82,2.42-1.42.69-.6,1.18-1.26,1.47-1.99l5.89,1.74c-.62,1.42-1.54,2.67-2.75,3.76s-2.65,1.95-4.3,2.59c-1.65.64-3.5.95-5.53.95ZM465.62,1007.39c-.98,0-2.04-.13-3.16-.38-1.13-.25-2.22-.65-3.27-1.2l1.53-3.21c.65.36,1.28.64,1.88.84.6.2,1.26.3,1.99.3,1.02,0,1.82-.22,2.4-.65.58-.44.87-1.07.87-1.91s-.29-1.59-.87-2.26c-.58-.67-1.42-1.35-2.51-2.04l2.07-1.42c1.49.95,2.7,1.93,3.62,2.97.93,1.03,1.39,2.32,1.39,3.84s-.52,2.76-1.55,3.71c-1.04.94-2.5,1.42-4.39,1.42Z"/>
        <path class="st2" d="M498.1,988.62c0-1.8.52-3.37,1.55-4.72,1.04-1.35,2.46-2.39,4.28-3.13,1.82-.74,3.92-1.11,6.32-1.11,1.27,0,2.57.09,3.9.27,1.33.18,2.5.47,3.52.87v-1.79c0-1.97-.6-3.51-1.8-4.61-1.2-1.11-2.92-1.66-5.18-1.66-1.6,0-3.1.28-4.52.84-1.42.56-2.92,1.35-4.52,2.37l-2.02-4.03c1.89-1.27,3.79-2.21,5.69-2.83,1.91-.62,3.91-.93,6.02-.93,3.81,0,6.82,1,9.02,2.99,2.2,1.99,3.3,4.82,3.3,8.49v10.51c0,.68.12,1.17.35,1.46.24.29.64.45,1.23.48v4.8c-.55.11-1.04.18-1.47.22-.44.04-.8.05-1.09.05-1.27,0-2.24-.31-2.89-.93-.65-.62-1.04-1.34-1.15-2.18l-.16-1.63c-1.23,1.6-2.82,2.83-4.74,3.71-1.93.87-3.87,1.31-5.83,1.31s-3.58-.39-5.07-1.16c-1.49-.77-2.65-1.83-3.49-3.16-.84-1.33-1.25-2.83-1.25-4.48ZM514.72,963.36c-1.09,0-2.03-.2-2.81-.6-.78-.4-1.49-.79-2.13-1.17-.64-.38-1.35-.57-2.15-.57s-1.39.2-1.77.6c-.38.4-.63.82-.73,1.25-.11.44-.16.69-.16.76h-3.38c0-.29.09-.77.27-1.44.18-.67.5-1.38.95-2.13.45-.74,1.05-1.38,1.8-1.91.74-.53,1.68-.79,2.81-.79s2,.2,2.73.6c.73.4,1.42.8,2.1,1.2.67.4,1.44.6,2.32.6s1.56-.21,1.96-.63c.4-.42.66-.84.79-1.28.13-.44.19-.69.19-.76h3.43c0,.25-.1.71-.3,1.36-.2.65-.54,1.36-1.01,2.13s-1.11,1.42-1.91,1.96c-.8.54-1.8.82-3,.82ZM516.24,990.32c.44-.46.78-.93,1.04-1.39.25-.46.38-.87.38-1.23v-3.21c-1.02-.39-2.09-.69-3.21-.88-1.13-.2-2.24-.29-3.32-.29-2.18,0-3.95.43-5.31,1.29-1.36.86-2.04,2.04-2.04,3.54,0,.82.23,1.61.68,2.36.45.75,1.11,1.36,1.96,1.82.85.46,1.92.7,3.19.7s2.56-.25,3.76-.75c1.2-.5,2.16-1.14,2.89-1.93Z"/>
        <path class="st2" d="M560.05,997.42c-2.25,0-4.27-.39-6.05-1.16-1.78-.77-3.32-1.85-4.6-3.21-1.29-1.37-2.28-2.92-2.97-4.67-.69-1.75-1.04-3.61-1.04-5.59s.34-3.85,1.04-5.62c.69-1.76,1.68-3.32,2.97-4.67,1.29-1.35,2.83-2.41,4.63-3.18,1.8-.77,3.8-1.16,6.02-1.16s4.22.39,6.02,1.16,3.34,1.84,4.63,3.18c1.29,1.35,2.28,2.91,2.97,4.67.69,1.76,1.04,3.64,1.04,5.62s-.35,3.84-1.04,5.59c-.69,1.75-1.68,3.3-2.97,4.67-1.29,1.37-2.83,2.44-4.63,3.21-1.8.77-3.81,1.16-6.02,1.16ZM551.55,982.84c0,1.79.38,3.4,1.14,4.84.76,1.43,1.78,2.56,3.05,3.38,1.27.82,2.71,1.23,4.3,1.23s2.99-.42,4.28-1.26c1.29-.84,2.32-1.99,3.08-3.44.76-1.45,1.15-3.05,1.15-4.81s-.38-3.4-1.15-4.83c-.76-1.43-1.79-2.57-3.08-3.41-1.29-.84-2.72-1.26-4.28-1.26s-3.03.43-4.3,1.29c-1.27.86-2.29,2-3.05,3.41-.76,1.42-1.14,3.04-1.14,4.86Z"/>
        <path class="st2" d="M623.21,1007.28c-1.31,0-2.55-.2-3.73-.6-1.18-.4-2.22-1.02-3.13-1.85l2.67-4.03c.44.44.97.75,1.61.95.64.2,1.26.3,1.88.3.73,0,1.39-.18,1.99-.54.6-.36,1.09-.86,1.47-1.49.38-.63.57-1.33.57-2.08v-29.34h5.99v28.93c0,1.88-.43,3.56-1.28,5.04-.86,1.48-1.98,2.64-3.38,3.47-1.4.83-2.95,1.25-4.66,1.25ZM626.53,963.91v-6.59h5.99v6.59h-5.99Z"/>
        <path class="st2" d="M655.79,985.9v-17.31h5.99v16.09c0,2.52.46,4.42,1.39,5.7.93,1.28,2.28,1.92,4.06,1.92,1.13,0,2.22-.23,3.3-.7,1.07-.47,2.05-1.15,2.94-2.07.89-.91,1.61-2.02,2.15-3.31v-17.63h5.99v21.54c0,.68.13,1.17.38,1.46.25.29.67.45,1.25.49v4.8c-.62.11-1.13.18-1.53.22-.4.04-.78.05-1.14.05-1.09,0-2-.3-2.73-.89-.73-.6-1.14-1.36-1.25-2.3l-.11-2.81c-1.27,2.05-2.92,3.61-4.96,4.68-2.03,1.06-4.27,1.6-6.7,1.6-2.98,0-5.23-.97-6.76-2.92-1.53-1.95-2.29-4.81-2.29-8.6Z"/>
        <path class="st2" d="M721.61,973.55c-2.33.04-4.39.56-6.18,1.58-1.8,1.02-3.08,2.45-3.84,4.31v17.44h-5.99v-28.28h5.56v6.16c.98-1.96,2.27-3.53,3.87-4.71,1.6-1.18,3.29-1.83,5.07-1.93h.9c.23,0,.44.02.63.05v5.4Z"/>
        <path class="st2" d="M742.32,996.87v-28.28h5.99v28.28h-5.99ZM747.38,964.29l-3.92-1.2,3.11-5.99h5.72l-4.9,7.19Z"/>
        <path class="st2" d="M770.05,982.79c0-2.7.55-5.16,1.66-7.37,1.11-2.21,2.62-3.98,4.55-5.29,1.93-1.31,4.14-1.97,6.65-1.97,2.18,0,4.15.56,5.91,1.69,1.76,1.13,3.13,2.52,4.11,4.2v-16.95h5.99v33.02c0,.69.13,1.18.38,1.47.25.29.67.45,1.25.49v4.8c-1.13.18-2,.27-2.62.27-1.13,0-2.08-.33-2.86-.98-.78-.65-1.19-1.43-1.23-2.34l-.06-2.13c-1.09,1.82-2.56,3.22-4.41,4.22-1.85,1-3.78,1.5-5.78,1.5s-3.77-.38-5.42-1.13c-1.65-.76-3.09-1.82-4.3-3.19-1.22-1.37-2.16-2.93-2.83-4.7-.67-1.76-1.01-3.63-1.01-5.62ZM792.94,986.71v-7.36c-.4-1.15-1.04-2.18-1.93-3.09-.89-.91-1.89-1.64-3-2.18-1.11-.54-2.21-.81-3.3-.81-1.27,0-2.42.27-3.46.81-1.04.54-1.93,1.25-2.67,2.15-.75.9-1.32,1.92-1.72,3.06-.4,1.15-.6,2.35-.6,3.6s.22,2.5.65,3.63c.44,1.13,1.06,2.13,1.88,3.01.82.88,1.76,1.56,2.83,2.04,1.07.48,2.24.73,3.51.73.8,0,1.61-.14,2.42-.43.82-.29,1.6-.68,2.34-1.18.74-.5,1.38-1.09,1.91-1.77.53-.68.9-1.41,1.12-2.2Z"/>
        <path class="st2" d="M822.91,963.69v-6.59h5.99v6.59h-5.99ZM822.91,996.87v-28.5h5.99v28.5h-5.99Z"/>
        <path class="st2" d="M865.35,997.42c-2.22,0-4.22-.39-6.02-1.16-1.8-.77-3.35-1.85-4.66-3.21-1.31-1.37-2.32-2.93-3.02-4.7-.71-1.76-1.06-3.64-1.06-5.61,0-2.66.61-5.09,1.82-7.29,1.22-2.19,2.92-3.96,5.12-5.29,2.2-1.33,4.8-2,7.82-2s5.44.65,7.6,1.93c2.16,1.29,3.75,3.01,4.77,5.15l-5.83,1.85c-.65-1.2-1.57-2.13-2.75-2.81-1.18-.67-2.48-1.01-3.9-1.01-1.6,0-3.04.4-4.33,1.21-1.29.81-2.31,1.92-3.05,3.33-.75,1.41-1.12,3.05-1.12,4.91s.38,3.41,1.14,4.86c.76,1.45,1.79,2.6,3.08,3.44,1.29.84,2.73,1.26,4.33,1.26.98,0,1.93-.17,2.86-.52.93-.35,1.74-.82,2.43-1.42.69-.6,1.18-1.26,1.47-1.99l5.88,1.74c-.62,1.42-1.53,2.67-2.75,3.76-1.22,1.09-2.65,1.95-4.3,2.59-1.65.64-3.5.95-5.53.95Z"/>
        <path class="st2" d="M897.17,988.62c0-1.8.52-3.37,1.55-4.72,1.04-1.35,2.46-2.39,4.28-3.13,1.82-.74,3.92-1.11,6.32-1.11,1.27,0,2.57.09,3.9.27,1.32.18,2.5.47,3.51.87v-1.79c0-1.97-.6-3.51-1.8-4.61-1.2-1.11-2.92-1.66-5.18-1.66-1.6,0-3.1.28-4.52.84-1.42.56-2.92,1.35-4.52,2.37l-2.02-4.03c1.89-1.27,3.79-2.21,5.69-2.83,1.91-.62,3.91-.93,6.02-.93,3.81,0,6.82,1,9.02,2.99,2.2,1.99,3.3,4.82,3.3,8.49v10.51c0,.68.12,1.17.35,1.46.24.29.65.45,1.23.48v4.8c-.54.11-1.04.18-1.47.22-.44.04-.8.05-1.09.05-1.27,0-2.23-.31-2.89-.93-.65-.62-1.04-1.34-1.14-2.18l-.16-1.63c-1.23,1.6-2.81,2.83-4.74,3.71-1.93.87-3.87,1.31-5.83,1.31s-3.58-.39-5.07-1.16c-1.49-.77-2.65-1.83-3.49-3.16-.84-1.33-1.25-2.83-1.25-4.48ZM915.32,990.32c.44-.46.78-.93,1.04-1.39.25-.46.38-.87.38-1.23v-3.21c-1.02-.39-2.09-.69-3.21-.88-1.13-.2-2.23-.29-3.32-.29-2.18,0-3.95.43-5.31,1.29-1.36.86-2.04,2.04-2.04,3.54,0,.82.23,1.61.68,2.36.45.75,1.11,1.36,1.96,1.82.85.46,1.92.7,3.19.7s2.56-.25,3.76-.75,2.16-1.14,2.89-1.93Z"/>
      </g>
    </g>
    <path class="st1" d="M753.12,212.62c-.84-6.29-1.94-12.56-3.39-18.66,0,0,0,0,0,0-.54-3.87-1.62-7.74-3.12-11.51-.02-.06-.04-.13-.06-.2-.01-.04-.03-.08-.05-.12-.05-.12-.07-.24-.12-.35-.01-.03-.02-.05-.04-.08-20.65-65.58-79.81-106.3-158.38-108.96-1-.03-1.99-.06-3-.08-79.27-1.65-175.9,37.51-222.83,116.45-1.98-.51-4.04-.83-6.17-.87-14.9-.31-27.27,11.55-27.58,26.45-.31,14.89,11.55,27.27,26.45,27.58,14.89.31,27.27-11.55,27.58-26.45.18-8.58-3.7-16.31-9.85-21.39,44.96-75.06,137.62-112.17,213.33-110.04,40.64.85,34.51,50.85,3.9,57.19-31.97,9.96-62.53,27.84-90.37,52.56-3.61-1.92-7.7-3.06-12.05-3.16-14.9-.31-27.27,11.55-27.58,26.45-.11,5.18,1.28,10.04,3.73,14.21-1.93,2.36-3.85,4.76-5.74,7.21-31.03,40.06-56.49,89.8-76.13,148.46-33.41-9.49-60.94-19.29-79.19-26.29.22-1.29.38-2.6.4-3.95.31-14.89-11.56-27.27-26.45-27.58-14.89-.31-27.27,11.55-27.58,26.45-.31,14.9,11.55,27.27,26.45,27.58,9.41.2,17.8-4.47,22.79-11.69,18.45,7.08,46.25,16.98,79.97,26.57-5.5,17.38-10.51,35.5-15.03,54.35-14.67-.04-26.77,11.71-27.08,26.44-.31,14.89,11.55,27.27,26.45,27.58,14.9.31,27.27-11.55,27.58-26.45.23-11-6.19-20.6-15.56-25.01,4.47-18.67,9.44-36.6,14.88-53.78,25.63,6.96,54.21,13.56,84.4,18.57,7.34,1.22,14.6,2.3,21.79,3.27.31,9.73,5.78,18.21,13.82,22.72-5.46,23.2-7.39,42.85-7.91,57.04-12.13,2.44-21.41,13.04-21.68,25.91-.31,14.9,11.55,27.27,26.45,27.58,5.13.11,9.95-1.26,14.09-3.67,35.14,39.17,76.62,47.01,102.01,47.54,14.15.3,23.31-1.67,23.59-1.74,2.18-.5,3.89-2.2,4.39-4.38,14.93-64.88,76.51-89.54,121.47-107.55,14.45-5.79,26.93-10.79,35.56-16.28,33.55-21.36,11.64-118.74,5.02-144.95,19.44-7.63,19.89-21.56,18.24-29.59,0,0,0,0,0,0-6.48-31.49-65.4-74.79-77.44-83.36ZM369.69,212.08c.04.2.1.39.13.59.08.43.13.87.17,1.32,0,.02,0,.05,0,.07.04.49.06.99.05,1.49-.05,2.47-.72,4.79-1.85,6.81-1.44,2.59-3.65,4.69-6.3,6.01-2.05,1.02-4.36,1.58-6.81,1.53-2.27-.05-4.4-.62-6.3-1.59-2.88-1.46-5.2-3.83-6.6-6.73-.97-2.01-1.5-4.26-1.45-6.64.05-2.27.62-4.4,1.59-6.29,1.49-2.95,3.94-5.31,6.95-6.7,1.96-.9,4.13-1.4,6.43-1.36.03,0,.06,0,.09,0,0,0,0,0,0,0,5.19.14,9.68,2.97,12.17,7.13,0,0,0,.02.02.03.22.36.42.73.6,1.11.03.06.05.12.08.17.16.34.31.68.44,1.03.05.13.09.27.14.4.1.29.2.57.28.86.07.24.12.49.17.74ZM290.5,356.29s0,.01,0,.02c0,0,0,0,0,0,0,.17.02.33.01.5-.16,7.59-6.05,13.71-13.46,14.3-.49.04-.99.06-1.5.04-.53-.01-1.04-.05-1.55-.12-7.34-.93-12.95-7.27-12.79-14.84.17-8.08,6.84-14.49,14.92-14.35.01,0,.03,0,.04,0h0s0,0,0,0c.5.01.99.05,1.47.1.27.03.52.09.78.13.21.04.43.06.64.11.36.08.7.18,1.05.29.1.03.21.05.31.09.41.14.82.29,1.22.47.03.01.06.02.09.03,5.12,2.24,8.68,7.32,8.76,13.21ZM378.02,480.07c-.17,8.31-7.05,14.91-15.37,14.74-8.31-.17-14.91-7.05-14.74-15.37.17-8.31,7.05-14.91,15.37-14.74,8.31.17,14.91,7.05,14.74,15.37ZM513.83,218.55c.13-6.28-1.92-12.1-5.44-16.77,26.67-23.42,55.83-40.28,86.24-49.52,0,0,.01,0,.02,0,67.09-20.43,127,1.01,140.88,33.85,0,0,0,.02.01.03.94,2.99,1.84,6.34,2.77,10.23,0,.01,0,.03,0,.04,0,.01,0,.03,0,.04,0,0,0,0,0,0,0,0,0,.02,0,.03,0,.01,0,.02,0,.03,1.18,4.95,2.08,10.03,2.83,15.13-20.18,5.56-94.21,28.18-141.77,71.97-3.85-2.26-8.31-3.61-13.08-3.71-8.41-.18-16.01,3.53-21.09,9.47-2.49-1.55-4.95-3.14-7.37-4.8-23.9-16.34-40.44-34.49-50.99-48.54,4.19-4.65,6.81-10.75,6.96-17.49ZM600.01,303.56c.02.1.05.19.07.29.09.44.17.89.22,1.34.01.12.03.23.05.35.05.56.08,1.12.07,1.69-.13,6.18-4.07,11.38-9.53,13.42-.02,0-.03.01-.05.02-.4.15-.8.28-1.21.39-.09.03-.19.04-.28.07-.35.09-.69.17-1.05.23-.2.04-.41.05-.61.08-.26.03-.51.08-.78.1-.46.04-.92.05-1.4.04-.02,0-.03,0-.05,0-.59-.01-1.18-.07-1.75-.15-.03,0-.07-.01-.1-.02-5.89-.87-10.61-5.23-12.04-10.88-.03-.12-.06-.24-.09-.37-.1-.44-.18-.89-.24-1.35-.02-.14-.04-.29-.06-.43-.06-.58-.09-1.17-.08-1.76.12-5.75,3.54-10.64,8.4-12.94,0,0,.02,0,.03-.01.38-.18.76-.34,1.15-.49.06-.02.13-.04.19-.07.35-.12.7-.24,1.05-.34.13-.04.27-.06.41-.1.3-.07.6-.15.91-.2.23-.04.47-.06.71-.09.22-.03.45-.06.67-.08.47-.04.95-.05,1.44-.04h0s0,0,0,0c.65.01,1.28.08,1.9.18.09.01.18.03.27.05,5.29.9,9.58,4.62,11.33,9.53.01.03.02.07.03.1.16.47.3.94.41,1.43ZM472.16,217.68c.17-8.08,6.88-14.52,14.96-14.35.73.02,1.45.1,2.15.22-.03.03-.06.06-.1.1,4.2.69,7.78,3.15,9.95,6.6.03-.03.05-.05.08-.08,1.49,2.35,2.33,5.14,2.26,8.12-.05,2.6-.79,5.03-2.03,7.13-.02-.03-.04-.06-.06-.1-2.04,3.48-5.48,6.02-9.53,6.88.02.03.04.06.06.1-1.09.24-2.23.36-3.39.34-2.51-.05-4.86-.74-6.9-1.9.02-.03.05-.05.07-.08-3.58-2.02-6.19-5.5-7.07-9.62-.03.03-.06.07-.09.1-.25-1.11-.38-2.27-.35-3.46ZM497.64,411.88c-7.43-.99-14.71-2.08-21.78-3.25-29.66-4.91-57.74-11.38-82.94-18.21,19.2-57.15,43.97-105.54,74.09-144.43,1.5-1.94,3.02-3.84,4.54-5.72,4.19,2.88,9.23,4.62,14.69,4.74,3.92.08,7.65-.7,11.04-2.13,11.05,14.76,28.3,33.69,53.41,50.96,2.86,1.97,5.91,3.92,9.05,5.87-.59,2.13-.96,4.35-1.01,6.66-.14,6.8,2.28,13.06,6.34,17.9-17.48,24.63-30.25,48.8-39.54,71.4-.83-.1-1.67-.16-2.53-.18-11.32-.24-21.17,6.57-25.39,16.39ZM537.43,422.81c-.17,8.27-7.01,14.83-15.28,14.65-8.27-.17-14.83-7.01-14.65-15.28.17-8.27,7.01-14.83,15.28-14.65,8.27.17,14.83,7.01,14.65,15.28ZM506.43,544.43c-8.19-.17-14.69-6.95-14.52-15.14.17-8.19,6.95-14.69,15.14-14.52,8.19.17,14.69,6.95,14.52,15.14-.17,8.19-6.95,14.69-15.14,14.52ZM801.02,460.68c-7.71,4.91-19.72,9.72-33.63,15.29-26.24,10.51-60.34,24.18-87.33,48.01v-.03c-74.05,38.95-151.22,21.16-151.22,21.16,2.99-4.24,4.79-9.39,4.91-14.96.27-12.84-8.52-23.78-20.48-26.76.59-13.38,2.49-31.99,7.62-53.95.34.02.67.07,1.01.07,13.04.27,24.14-8.79,26.92-21.04,6.42.35,12.77.6,19.04.73,99.13,2.07,180.63-22.46,239.38-72.35,8.04,43.01,11.1,92.79-6.22,103.83ZM804.59,343.74c-71.6,64.1-169.37,77.66-255.76,72.99-1.57-7.15-5.97-13.26-12-17.07,8.88-21.67,21.03-44.79,37.57-68.24,3.29,1.53,6.94,2.43,10.79,2.51,9.25.19,17.53-4.32,22.55-11.33,25.85,9.14,56.99,15.61,94.06,16.39,29.29.61,62.33-2.39,99.24-10.35,1.21,4.78,2.4,9.84,3.54,15.09ZM803.83,316.12c-72.15,16.35-137.21,14.77-191.54-4.23.27-1.43.45-2.9.48-4.4.11-5.17-1.28-10.03-3.73-14.19,48.43-31.91,146.87-79.57,210.28,6.26.84,5.67-.72,12.35-15.5,16.57Z"/>
  </g>
</svg>